<?xml version="1.0" encoding="UTF-8" standalone="no"?>
<svg
   width="24"
   height="24"
   fill-rule="evenodd"
   clip-rule="evenodd"
   version="1.1"
   id="svg4"
   sodipodi:docname="favicon.svg"
   inkscape:version="1.1.2 (b8e25be833, 2022-02-05)"
   xmlns:inkscape="http://www.inkscape.org/namespaces/inkscape"
   xmlns:sodipodi="http://sodipodi.sourceforge.net/DTD/sodipodi-0.dtd"
   xmlns="http://www.w3.org/2000/svg"
   xmlns:svg="http://www.w3.org/2000/svg">
  <defs
     id="defs8" />
  <sodipodi:namedview
     id="namedview6"
     pagecolor="#ffffff"
     bordercolor="#666666"
     borderopacity="1.0"
     inkscape:pageshadow="2"
     inkscape:pageopacity="0.0"
     inkscape:pagecheckerboard="0"
     showgrid="false"
     inkscape:zoom="21.625"
     inkscape:cx="12"
     inkscape:cy="8.300578"
     inkscape:window-width="1366"
     inkscape:window-height="700"
     inkscape:window-x="-8"
     inkscape:window-y="-8"
     inkscape:window-maximized="1"
     inkscape:current-layer="svg4" />
  <path
     d="M12.5 17.52c1.415-1.054 3.624-1.846 5.5-2v6.479c-1.739.263-3.755 1.104-5.5 2v-6.479zm-1 0c-1.415-1.054-3.624-1.846-5.5-2v6.479c1.739.263 3.755 1.104 5.5 2v-6.479zm-6.5 2.917c-2.049-.674-2.996-1.437-2.996-1.437l-.004-2.025c-.008-2.127.088-3.344 2.648-3.909 2.805-.619 5.799-1.317 4.241-3.521-3.901-5.523-.809-9.545 3.111-9.545 3.921 0 6.996 3.991 3.11 9.545-1.529 2.185 1.376 2.888 4.242 3.521 2.57.568 2.657 1.791 2.647 3.934l-.003 2s-.947.763-2.996 1.437v-6.003l-1.082.089c-2.054.169-4.36 1.002-5.918 2.128-1.559-1.126-3.863-1.959-5.918-2.128l-1.082-.089v6.003z"
     id="path2"
     style="fill:#2ad4ff" />
</svg>
