<?xml version="1.0" encoding="UTF-8" standalone="no"?>
<svg
   width="24"
   height="24"
   fill-rule="evenodd"
   clip-rule="evenodd"
   version="1.1"
   id="svg4"
   sodipodi:docname="favicon.svg"
   inkscape:version="1.1.2 (b8e25be833, 2022-02-05)"
   xmlns:inkscape="http://www.inkscape.org/namespaces/inkscape"
   xmlns:sodipodi="http://sodipodi.sourceforge.net/DTD/sodipodi-0.dtd"
   xmlns="http://www.w3.org/2000/svg"
   xmlns:svg="http://www.w3.org/2000/svg">
  <defs
     id="defs8" />
  <sodipodi:namedview
     id="namedview6"
     pagecolor="#ffffff"
     bordercolor="#666666"
     borderopacity="1.0"
     inkscape:pageshadow="2"
     inkscape:pageopacity="0.0"
     inkscape:pagecheckerboard="0"
     showgrid="false"
     inkscape:zoom="11.578939"
     inkscape:cx="25.434108"
     inkscape:cy="8.9386425"
     inkscape:window-width="1366"
     inkscape:window-height="740"
     inkscape:window-x="-8"
     inkscape:window-y="-8"
     inkscape:window-maximized="1"
     inkscape:current-layer="svg4" />
  <path
     d="M12.5 17.52c1.415-1.054 3.624-1.846 5.5-2v6.479c-1.739.263-3.755 1.104-5.5 2v-6.479zm-1 0c-1.415-1.054-3.624-1.846-5.5-2v6.479c1.739.263 3.755 1.104 5.5 2v-6.479zm-6.5 2.917c-2.049-.674-2.996-1.437-2.996-1.437l-.004-2.025c-.008-2.127.088-3.344 2.648-3.909 2.805-.619 5.799-1.317 4.241-3.521-3.901-5.523-.809-9.545 3.111-9.545 3.921 0 6.996 3.991 3.11 9.545-1.529 2.185 1.376 2.888 4.242 3.521 2.57.568 2.657 1.791 2.647 3.934l-.003 2s-.947.763-2.996 1.437v-6.003l-1.082.089c-2.054.169-4.36 1.002-5.918 2.128-1.559-1.126-3.863-1.959-5.918-2.128l-1.082-.089v6.003z"
     id="path2"
     style="fill:#2ad4ff" />
  <text
     xml:space="preserve"
     style="font-style:normal;font-weight:normal;font-size:13.33333333px;line-height:1.25;font-family:sans-serif;fill:#000000;fill-opacity:1;stroke:none"
     x="10.774566"
     y="5.8265896"
     id="text954"><tspan
       sodipodi:role="line"
       id="tspan952"
       x="10.774566"
       y="5.8265896" /></text>
  <text
     xml:space="preserve"
     style="font-style:normal;font-weight:normal;font-size:40px;line-height:1.25;font-family:sans-serif;fill:#000000;fill-opacity:1;stroke:none"
     x="9.757225"
     y="6.7052021"
     id="text4874"><tspan
       sodipodi:role="line"
       id="tspan4872"
       x="9.757225"
       y="6.7052021" /></text>
  <text
     xml:space="preserve"
     style="font-style:normal;font-weight:normal;font-size:13.3333px;line-height:1.25;font-family:'Agency FB';fill:#000000;fill-opacity:1;stroke:none;-inkscape-font-specification:'Agency FB, Condensed';font-stretch:condensed;font-variant:normal;font-variant-ligatures:normal;font-variant-caps:normal;font-variant-numeric:normal;font-variant-east-asian:normal"
     x="9.5260115"
     y="9.5260115"
     id="text8442"><tspan
       sodipodi:role="line"
       id="tspan9126"></tspan></text>
  <text
     xml:space="preserve"
     style="font-stretch:condensed;font-size:13.3333px;line-height:1.25;font-family:'Agency FB';-inkscape-font-specification:'Agency FB, Condensed';fill:#ff00ff"
     x="0.98485941"
     y="22.881016"
     id="text10450"><tspan
       sodipodi:role="line"
       id="tspan10448"
       x="0.98485941"
       y="22.881016">suma</tspan></text>
</svg>
